<?xml version="1.0" encoding="UTF-8"?><svg version="1.1" xmlns="http://www.w3.org/2000/svg" xmlns:xlink="http://www.w3.org/1999/xlink" viewBox="0 0 1500 1500" width="1500" height="1500" x="0px" y="0px">
    
    
    <!-- ITEM 0 -->
    <g>
        <defs>
            <clipPath id="clip-path-id-crop-item-0">
                
          <g transform="scale(0.54462828438949 0.543970988213962)">
          <rect x="0.0" y="0.0" width="1407.0" height="1199.0"/>
          </g>
        
            </clipPath>
            
            <clipPath id="clip-path-id-viewbox-item-0">
                <rect x="0.0" y="0.0" width="704.749" height="600.0"/>
            </clipPath>
        </defs>
        <g clip-path="url(#clip-path-id-crop-item-0)" transform="translate(103.0 139.0) rotate(0.0 647.0 551.5) scale(1.8361147018300132 1.8383333333333334)">
            <g clip-path="url(#clip-path-id-viewbox-item-0)" transform="translate(-0.0 -0.0)">
                <defs><linearGradient id="linear-gradient-i0" x1="247.589" y1="-438.961" x2="247.589" y2="-202.928" gradientTransform="translate(0 792)" gradientUnits="userSpaceOnUse"><stop offset="0" stop-color="#ffd8a1"/><stop offset="0.996" stop-color="#fff"/></linearGradient><linearGradient id="linear-gradient-2-i0" x1="-7906.494" y1="-289.041" x2="-7906.494" y2="-197.522" gradientTransform="matrix(-1, 0, 0, 1, -7306.716, 792)" xlink:href="#linear-gradient-i0"/><linearGradient id="linear-gradient-3-i0" x1="190.383" y1="-254.303" x2="190.383" y2="-190.013" xlink:href="#linear-gradient-i0"/></defs><title>background_20</title><g id="Layer_2-i0" data-name="Layer 2"><g id="Layer_1-2-i0" data-name="Layer 1"><g opacity="0.3"><path d="M702.018,2.288V596.014H2.288V2.288h699.73M704.306,0H0V598.3H704.306V0Z" fill="#c4ecfe"/><path d="M0,308.342c0-26.428,31.594-39.789,50.714-21.482,63.705,60.9,107.628,36.614,158.932,109.7C273.425,487.5,291.511,573.72,495.177,600L0,596.752Z" fill="url(#linear-gradient-i0)"/><rect x="170.374" width="2.141" height="598.302" fill="#c4ecfe"/><rect x="259.99" width="2.141" height="598.302" fill="#c4ecfe"/><rect x="170.374" width="2.141" height="598.302" fill="#c4ecfe"/><rect x="80.758" width="2.141" height="598.302" fill="#c4ecfe"/><rect x="349.606" width="2.141" height="598.302" fill="#c4ecfe"/><rect x="439.222" width="2.141" height="598.302" fill="#c4ecfe"/><rect x="527.731" width="2.141" height="598.302" fill="#c4ecfe"/><rect x="616.24" width="2.141" height="598.302" fill="#c4ecfe"/></g><circle cx="144.094" cy="276.304" r="3.027" fill="#bfd9ff"/><circle cx="654.847" cy="378.1" r="3.027" fill="#bfd9ff"/><circle cx="651.821" cy="57.874" r="3.027" fill="#bfd9ff"/><circle cx="300.074" cy="35.212" r="3.027" fill="#bfd9ff"/><circle cx="28.125" cy="53.15" r="3.027" fill="#bfd9ff"/><circle cx="490.822" cy="452.436" r="2.805" fill="#bfd9ff"/><circle cx="38.545" cy="374.716" r="2.805" fill="#bfd9ff"/><path d="M496.284,598.3c45.768,0,66.659-67.1,120.621-60.605,16.166,1.919,34.252-31.226,41.633-43.7,12.254-20.743,44.735-12.4,44.735,11.59V598.3Z" fill="url(#linear-gradient-2-i0)"/><path d="M288.41,598.3c-25.615,0-41.855-24.36-65.477-39.2-42-26.353-37.574-1.476-106.816-22.145-29.232-8.711-34.252,20.669.591,61.343Z" fill="url(#linear-gradient-3-i0)"/><path d="M640.01,256.964l-4.355-5.98c10.113-7.308,16.83-23.031,23.917-39.567,9.449-22.145,20.152-47.244,42-57.578l3.174,6.643c-19.341,9.154-29.011,31.89-38.386,53.814C658.907,231.791,651.821,248.4,640.01,256.964Z" fill="#f9d5ff"/></g></g>
            </g>
        </g>
    </g>
    
    <!-- ITEM 1 -->
    <g>
        <defs>
            <clipPath id="clip-path-id-viewbox-item-1">
                <rect x="0.0" y="0.0" width="84.966" height="497.539"/>
            </clipPath>
        </defs>
        <g transform="translate(101.0 326.0) rotate(0.0 78.0 456.0) scale(1.8360285290586824 1.8330221349482152)">
            <g clip-path="url(#clip-path-id-viewbox-item-1)" transform="translate(-0.0 -0.0)">
                
<g>
	<g>
		<path fill="#2B2B2B" d="M75,2.215H1.107C0.517,2.215,0,1.698,0,1.107S0.517,0,1.107,0H75c0.591,0,1.107,0.517,1.107,1.107    S75.591,2.215,75,2.215z"/>
	</g>
	<g>
		<path fill="#2B2B2B" d="M83.858,497.539H1.107c-0.591,0-1.107-0.517-1.107-1.107s0.517-1.107,1.107-1.107h82.751    c0.591,0,1.107,0.517,1.107,1.107S84.449,497.539,83.858,497.539z"/>
	</g>
	<g>
		<g>
			<g>
				<path fill="#2B2B2B" d="M29.232,481.668c-0.591,0-1.107-0.517-1.107-1.107V16.978c0-0.591,0.517-1.107,1.107-1.107      s1.107,0.517,1.107,1.107v463.583C30.34,481.152,29.823,481.668,29.232,481.668z"/>
			</g>
			<g>
				<polygon fill="#2B2B2B" points="40.305,477.313 29.232,496.432 18.233,477.313     "/>
			</g>
			<g>
				<polygon fill="#2B2B2B" points="40.305,20.226 29.232,1.107 18.233,20.226     "/>
			</g>
		</g>
	</g>
</g>

            </g>
        </g>
    </g>
    
    <!-- ITEM 2 -->
    <g>
        <defs>
            <clipPath id="clip-path-id-viewbox-item-2">
                <rect x="0.0" y="0.0" width="537.18" height="86.294"/>
            </clipPath>
        </defs>
        <g transform="translate(216.0 207.0) rotate(0.0 493.5 79.0) scale(1.8373729476153247 1.830950008111804)">
            <g clip-path="url(#clip-path-id-viewbox-item-2)" transform="translate(-0.0 -0.0)">
                
<g>
	<g>
		<g>
			<g>
				<path fill="#2B2B2B" d="M518.337,22.694H16.924c-0.589,0-1.103-0.515-1.103-1.103s0.515-1.103,1.103-1.103h501.414      c0.589,0,1.103,0.515,1.103,1.103S518.926,22.694,518.337,22.694z"/>
			</g>
			<g>
				<polygon fill="#2B2B2B" points="20.16,32.625 1.107,21.591 20.16,10.556     "/>
			</g>
			<g>
				<polygon fill="#2B2B2B" points="515.174,32.625 534.227,21.591 515.174,10.556     "/>
			</g>
		</g>
	</g>
	<g>
		<path fill="#2B2B2B" d="M1.107,86.294C0.517,86.294,0,85.778,0,85.187V1.107C0,0.517,0.517,0,1.107,0s1.107,0.517,1.107,1.107    v84.08C2.215,85.778,1.698,86.294,1.107,86.294z"/>
	</g>
	<g>
		<path fill="#2B2B2B" d="M536.073,86.294c-0.591,0-1.107-0.517-1.107-1.107V1.107c0-0.591,0.517-1.107,1.107-1.107    c0.591,0,1.107,0.517,1.107,1.107v84.08C537.18,85.778,536.663,86.294,536.073,86.294z"/>
	</g>
</g>

            </g>
        </g>
    </g>
    
    <!-- ITEM 3 -->
    <g>
        <defs>
            <clipPath id="clip-path-id-viewbox-item-3">
                <rect x="0.0" y="0.0" width="542.052" height="498.868"/>
            </clipPath>
        </defs>
        <g transform="translate(212.0 322.0) rotate(0.0 496.5 457.0) scale(1.8319275641451374 1.832147983033588)">
            <g clip-path="url(#clip-path-id-viewbox-item-3)" transform="translate(-0.0 -0.0)">
                
<g>
	<path fill="#FFFFFF" d="M538.509,382.53H3.543V23.991c0-12.254,9.892-22.146,22.146-22.146h490.674   c12.254,0,22.146,9.892,22.146,22.146V382.53z"/>
	<g>
		<g>
			<path fill="#F9D5FF" d="M518.504,498.868H23.548C10.556,498.868,0,488.312,0,475.32V268.775h7.087V475.32     c0,9.08,7.382,16.462,16.462,16.462h494.956c9.08,0,16.462-7.382,16.462-16.462V124.09h7.087v351.23     C542.052,488.312,531.496,498.868,518.504,498.868z"/>
		</g>
		<g>
			<path fill="#F9D5FF" d="M538.509,127.633c-1.919,0-3.543-1.55-3.543-3.543v-1.919c0-1.919,1.55-3.543,3.543-3.543     s3.543,1.55,3.543,3.543v1.919C542.052,126.009,540.428,127.633,538.509,127.633z M538.509,108.071     c-1.919,0-3.543-1.55-3.543-3.543v-8.489c0-1.919,1.55-3.543,3.543-3.543s3.543,1.55,3.543,3.543v8.489     C542.052,106.521,540.428,108.071,538.509,108.071z M538.509,81.939c-1.919,0-3.543-1.55-3.543-3.543v-8.489     c0-1.919,1.55-3.543,3.543-3.543s3.543,1.55,3.543,3.543v8.489C542.052,80.389,540.428,81.939,538.509,81.939z"/>
		</g>
		<g>
			<path fill="#B679EA" d="M3.543,270.62c-1.033,0-1.845-0.812-1.845-1.845v-8.489c0-1.033,0.812-1.845,1.845-1.845     s1.845,0.812,1.845,1.845v8.489C5.389,269.808,4.577,270.62,3.543,270.62z M3.543,244.562c-1.033,0-1.845-0.812-1.845-1.845     v-8.489c0-1.033,0.812-1.845,1.845-1.845s1.845,0.812,1.845,1.845v8.489C5.389,243.676,4.577,244.562,3.543,244.562z      M3.543,218.43c-1.033,0-1.845-0.812-1.845-1.845v-8.489c0-1.033,0.812-1.845,1.845-1.845s1.845,0.812,1.845,1.845v8.489     C5.389,217.618,4.577,218.43,3.543,218.43z M3.543,192.372c-1.033,0-1.845-0.812-1.845-1.845v-8.489     c0-1.033,0.812-1.845,1.845-1.845s1.845,0.812,1.845,1.845v8.489C5.389,191.486,4.577,192.372,3.543,192.372z M3.543,166.24     c-1.033,0-1.845-0.812-1.845-1.845v-8.489c0-1.033,0.812-1.845,1.845-1.845s1.845,0.812,1.845,1.845v8.489     C5.389,165.428,4.577,166.24,3.543,166.24z M3.543,140.182c-1.033,0-1.845-0.812-1.845-1.845v-8.489     c0-1.033,0.812-1.845,1.845-1.845s1.845,0.812,1.845,1.845v8.489C5.389,139.296,4.577,140.182,3.543,140.182z M3.543,114.05     c-1.033,0-1.845-0.812-1.845-1.845v-8.489c0-1.033,0.812-1.845,1.845-1.845s1.845,0.812,1.845,1.845v8.489     C5.389,113.238,4.577,114.05,3.543,114.05z M3.543,87.992c-1.033,0-1.845-0.812-1.845-1.845v-8.489     c0-1.033,0.812-1.845,1.845-1.845s1.845,0.812,1.845,1.845v8.489C5.389,87.106,4.577,87.992,3.543,87.992z"/>
		</g>
		<g>
			<path fill="#B679EA" d="M538.509,71.826h-8.489c-1.033,0-1.845-0.812-1.845-1.845c0-1.033,0.812-1.845,1.845-1.845h8.489     c1.034,0,1.845,0.812,1.845,1.845C540.354,71.014,539.542,71.826,538.509,71.826z M512.451,71.826h-8.489     c-1.033,0-1.845-0.812-1.845-1.845c0-1.033,0.812-1.845,1.845-1.845h8.489c1.034,0,1.845,0.812,1.845,1.845     C514.296,71.014,513.41,71.826,512.451,71.826z M486.319,71.826h-8.489c-1.033,0-1.845-0.812-1.845-1.845     c0-1.033,0.812-1.845,1.845-1.845h8.489c1.033,0,1.845,0.812,1.845,1.845C488.164,71.014,487.352,71.826,486.319,71.826z      M460.261,71.826h-8.489c-1.033,0-1.845-0.812-1.845-1.845c0-1.033,0.812-1.845,1.845-1.845h8.489     c1.033,0,1.845,0.812,1.845,1.845C462.106,71.014,461.22,71.826,460.261,71.826z M434.129,71.826h-8.489     c-1.033,0-1.845-0.812-1.845-1.845c0-1.033,0.812-1.845,1.845-1.845h8.489c1.033,0,1.845,0.812,1.845,1.845     C435.974,71.014,435.162,71.826,434.129,71.826z M408.071,71.826h-8.489c-1.034,0-1.845-0.812-1.845-1.845     c0-1.033,0.812-1.845,1.845-1.845h8.489c1.033,0,1.845,0.812,1.845,1.845C409.916,71.014,409.03,71.826,408.071,71.826z      M381.939,71.826h-8.489c-1.033,0-1.845-0.812-1.845-1.845c0-1.033,0.812-1.845,1.845-1.845h8.489     c1.034,0,1.845,0.812,1.845,1.845C383.784,71.014,382.972,71.826,381.939,71.826z M355.881,71.826h-8.489     c-1.033,0-1.845-0.812-1.845-1.845c0-1.033,0.812-1.845,1.845-1.845h8.489c1.033,0,1.845,0.812,1.845,1.845     C357.726,71.014,356.841,71.826,355.881,71.826z M329.749,71.826h-8.489c-1.033,0-1.845-0.812-1.845-1.845     c0-1.033,0.812-1.845,1.845-1.845h8.489c1.033,0,1.845,0.812,1.845,1.845C331.594,71.014,330.782,71.826,329.749,71.826z      M303.691,71.826h-8.489c-1.033,0-1.845-0.812-1.845-1.845c0-1.033,0.812-1.845,1.845-1.845h8.489     c1.033,0,1.845,0.812,1.845,1.845C305.536,71.014,304.651,71.826,303.691,71.826z M277.559,71.826h-8.489     c-1.033,0-1.845-0.812-1.845-1.845c0-1.033,0.812-1.845,1.845-1.845h8.489c1.033,0,1.845,0.812,1.845,1.845     C279.405,71.014,278.592,71.826,277.559,71.826z M251.501,71.826h-8.489c-1.033,0-1.845-0.812-1.845-1.845     c0-1.033,0.812-1.845,1.845-1.845h8.489c1.033,0,1.845,0.812,1.845,1.845C253.346,71.014,252.461,71.826,251.501,71.826z      M225.369,71.826h-8.489c-1.033,0-1.845-0.812-1.845-1.845c0-1.033,0.812-1.845,1.845-1.845h8.489     c1.033,0,1.845,0.812,1.845,1.845C227.215,71.014,226.403,71.826,225.369,71.826z M199.311,71.826h-8.489     c-1.033,0-1.845-0.812-1.845-1.845c0-1.033,0.812-1.845,1.845-1.845h8.489c1.033,0,1.845,0.812,1.845,1.845     C201.156,71.014,200.271,71.826,199.311,71.826z M173.179,71.826h-8.489c-1.033,0-1.845-0.812-1.845-1.845     c0-1.033,0.812-1.845,1.845-1.845h8.489c1.033,0,1.845,0.812,1.845,1.845C175.025,71.014,174.213,71.826,173.179,71.826z      M147.121,71.826h-8.489c-1.033,0-1.845-0.812-1.845-1.845c0-1.033,0.812-1.845,1.845-1.845h8.489     c1.033,0,1.845,0.812,1.845,1.845C148.967,71.014,148.081,71.826,147.121,71.826z M120.989,71.826H112.5     c-1.033,0-1.845-0.812-1.845-1.845c0-1.033,0.812-1.845,1.845-1.845h8.489c1.033,0,1.845,0.812,1.845,1.845     C122.835,71.014,122.023,71.826,120.989,71.826z M94.931,71.826h-8.489c-1.033,0-1.845-0.812-1.845-1.845     c0-1.033,0.812-1.845,1.845-1.845h8.489c1.033,0,1.845,0.812,1.845,1.845C96.777,71.014,95.891,71.826,94.931,71.826z      M68.799,71.826H60.31c-1.033,0-1.845-0.812-1.845-1.845c0-1.033,0.812-1.845,1.845-1.845h8.489c1.033,0,1.845,0.812,1.845,1.845     C70.645,71.014,69.833,71.826,68.799,71.826z M42.741,71.826h-8.489c-1.033,0-1.845-0.812-1.845-1.845     c0-1.033,0.812-1.845,1.845-1.845h8.489c1.033,0,1.845,0.812,1.845,1.845C44.587,71.014,43.701,71.826,42.741,71.826z      M16.609,71.826H8.12c-1.033,0-1.845-0.812-1.845-1.845c0-1.033,0.812-1.845,1.845-1.845h8.489c1.033,0,1.845,0.812,1.845,1.845     C18.455,71.014,17.643,71.826,16.609,71.826z M538.509,65.477c-1.034,0-1.845-0.812-1.845-1.845v-8.489     c0-1.033,0.812-1.845,1.845-1.845s1.845,0.812,1.845,1.845v8.489C540.354,64.665,539.542,65.477,538.509,65.477z M3.543,58.834     c-1.033,0-1.845-0.812-1.845-1.845v-8.489c0-1.033,0.812-1.845,1.845-1.845s1.845,0.812,1.845,1.845v8.489     C5.389,57.948,4.577,58.834,3.543,58.834z M538.509,39.345c-1.034,0-1.845-0.812-1.845-1.845v-8.489     c0-1.033,0.812-1.845,1.845-1.845s1.845,0.812,1.845,1.845V37.5C540.354,38.533,539.542,39.345,538.509,39.345z M3.543,32.702     c-1.033,0-1.845-0.812-1.845-1.845v-8.489c0-1.033,0.812-1.845,1.845-1.845s1.845,0.812,1.845,1.845v8.489     C5.389,31.89,4.577,32.702,3.543,32.702z M535.851,13.73c-0.664,0-1.255-0.369-1.624-0.96c-1.255-2.215-3.027-4.208-5.094-5.684     c-0.812-0.591-1.033-1.772-0.443-2.584c0.591-0.812,1.772-1.033,2.584-0.443c2.51,1.772,4.577,4.134,6.127,6.791     c0.517,0.886,0.221,1.993-0.664,2.51C536.516,13.656,536.22,13.73,535.851,13.73z M10.408,8.637     c-0.517,0-1.033-0.221-1.403-0.664C8.342,7.234,8.415,6.053,9.154,5.389c2.362-2.067,5.02-3.543,8.046-4.429     c0.96-0.295,1.993,0.221,2.288,1.255c0.295,0.96-0.221,1.993-1.255,2.288c-2.436,0.738-4.724,1.993-6.644,3.691     C11.22,8.489,10.851,8.637,10.408,8.637z M513.41,3.691h-8.415c-1.033,0-1.845-0.812-1.845-1.845S503.962,0,504.995,0h8.489     c1.033,0,1.845,0.812,1.845,1.845S514.444,3.691,513.41,3.691z M487.352,3.691h-8.489c-1.033,0-1.845-0.812-1.845-1.845     S477.83,0,478.863,0h8.489c1.033,0,1.845,0.812,1.845,1.845S488.386,3.691,487.352,3.691z M461.22,3.691h-8.489     c-1.033,0-1.845-0.812-1.845-1.845S451.698,0,452.731,0h8.489c1.033,0,1.845,0.812,1.845,1.845S462.254,3.691,461.22,3.691z      M435.162,3.691h-8.489c-1.033,0-1.845-0.812-1.845-1.845S425.64,0,426.673,0h8.489c1.034,0,1.845,0.812,1.845,1.845     S436.196,3.691,435.162,3.691z M409.03,3.691h-8.489c-1.033,0-1.845-0.812-1.845-1.845S399.508,0,400.541,0h8.489     c1.033,0,1.845,0.812,1.845,1.845S410.064,3.691,409.03,3.691z M382.972,3.691h-8.489c-1.033,0-1.845-0.812-1.845-1.845     S373.45,0,374.483,0h8.489c1.033,0,1.845,0.812,1.845,1.845S384.006,3.691,382.972,3.691z M356.841,3.691h-8.489     c-1.033,0-1.845-0.812-1.845-1.845S347.318,0,348.351,0h8.489c1.033,0,1.845,0.812,1.845,1.845S357.874,3.691,356.841,3.691z      M330.782,3.691h-8.489c-1.034,0-1.845-0.812-1.845-1.845S321.26,0,322.293,0h8.489c1.033,0,1.845,0.812,1.845,1.845     S331.816,3.691,330.782,3.691z M304.651,3.691h-8.489c-1.033,0-1.845-0.812-1.845-1.845S295.128,0,296.161,0h8.489     c1.034,0,1.845,0.812,1.845,1.845S305.684,3.691,304.651,3.691z M278.592,3.691h-8.489c-1.033,0-1.845-0.812-1.845-1.845     S269.07,0,270.103,0h8.489c1.033,0,1.845,0.812,1.845,1.845S279.626,3.691,278.592,3.691z M252.461,3.691h-8.489     c-1.033,0-1.845-0.812-1.845-1.845S242.938,0,243.971,0h8.489c1.033,0,1.845,0.812,1.845,1.845S253.494,3.691,252.461,3.691z      M226.403,3.691h-8.489c-1.033,0-1.845-0.812-1.845-1.845S216.88,0,217.913,0h8.489c1.033,0,1.845,0.812,1.845,1.845     S227.436,3.691,226.403,3.691z M200.271,3.691h-8.489c-1.033,0-1.845-0.812-1.845-1.845S190.748,0,191.781,0h8.489     c1.033,0,1.845,0.812,1.845,1.845S201.304,3.691,200.271,3.691z M174.213,3.691h-8.489c-1.033,0-1.845-0.812-1.845-1.845     S164.69,0,165.723,0h8.489c1.033,0,1.845,0.812,1.845,1.845S175.246,3.691,174.213,3.691z M148.155,3.691h-8.489     c-1.033,0-1.845-0.812-1.845-1.845S138.632,0,139.665,0h8.489C149.188,0,150,0.812,150,1.845S149.114,3.691,148.155,3.691z      M122.023,3.691h-8.489c-1.033,0-1.845-0.812-1.845-1.845S112.5,0,113.533,0h8.489c1.033,0,1.845,0.812,1.845,1.845     S123.056,3.691,122.023,3.691z M95.965,3.691h-8.489c-1.033,0-1.845-0.812-1.845-1.845S86.442,0,87.475,0h8.489     c1.033,0,1.845,0.812,1.845,1.845S96.924,3.691,95.965,3.691z M69.833,3.691h-8.489c-1.033,0-1.845-0.812-1.845-1.845     S60.31,0,61.343,0h8.489c1.033,0,1.845,0.812,1.845,1.845S70.866,3.691,69.833,3.691z M43.775,3.691h-8.489     c-1.033,0-1.845-0.812-1.845-1.845S34.252,0,35.285,0h8.489c1.033,0,1.845,0.812,1.845,1.845S44.734,3.691,43.775,3.691z"/>
		</g>
		<g>
			<g>
				<path fill="#B679EA" d="M40.01,50.714L40.01,50.714c-1.181-0.074-2.288-0.221-3.396-0.517c-0.96-0.295-1.55-1.255-1.329-2.288      c0.295-0.96,1.255-1.55,2.288-1.329c0.812,0.221,1.624,0.369,2.51,0.369c1.033,0.074,1.845,0.886,1.772,1.919      C41.855,49.902,41.043,50.714,40.01,50.714z M47.096,48.942c-0.664,0-1.255-0.295-1.624-0.886      c-0.517-0.886-0.221-1.993,0.664-2.51c0.738-0.443,1.403-0.96,1.993-1.55c0.738-0.664,1.919-0.664,2.584,0.074      c0.664,0.738,0.664,1.919-0.074,2.584c-0.812,0.738-1.698,1.476-2.657,1.993C47.761,48.868,47.392,48.942,47.096,48.942z       M30.93,46.432c-0.517,0-1.033-0.221-1.403-0.591c-0.738-0.812-1.403-1.772-1.993-2.731c-0.517-0.886-0.148-1.993,0.738-2.51      c0.886-0.517,1.993-0.148,2.51,0.738c0.443,0.738,0.886,1.403,1.476,2.067c0.664,0.738,0.664,1.919-0.148,2.584      C31.816,46.284,31.373,46.432,30.93,46.432z M53.15,40.896c-0.148,0-0.295,0-0.443-0.074c-0.96-0.221-1.624-1.255-1.329-2.215      c0.221-0.812,0.295-1.624,0.369-2.51c0-1.033,0.886-1.845,1.845-1.845c1.033,0,1.845,0.886,1.845,1.845      c0,1.107-0.148,2.215-0.443,3.322C54.7,40.305,53.962,40.896,53.15,40.896z M27.534,36.983h-0.074      c-1.033-0.074-1.772-0.96-1.772-1.919c0.074-1.107,0.221-2.215,0.591-3.322c0.295-0.96,1.329-1.55,2.288-1.255      c0.96,0.295,1.55,1.329,1.255,2.288c-0.221,0.812-0.369,1.624-0.443,2.51C29.306,36.171,28.494,36.983,27.534,36.983z       M51.599,30.93c-0.591,0-1.255-0.295-1.55-0.886c-0.443-0.738-0.96-1.403-1.55-1.993c-0.738-0.738-0.738-1.919,0-2.584      c0.738-0.738,1.919-0.738,2.584,0c0.812,0.812,1.476,1.698,2.067,2.657c0.517,0.886,0.295,1.993-0.591,2.51      C52.264,30.856,51.968,30.93,51.599,30.93z M31.964,27.904c-0.517,0-1.033-0.221-1.403-0.664      c-0.664-0.738-0.591-1.919,0.148-2.584c0.812-0.738,1.772-1.403,2.731-1.919c0.886-0.517,1.993-0.148,2.51,0.738      c0.517,0.886,0.148,1.993-0.738,2.51c-0.738,0.369-1.476,0.886-2.067,1.403C32.849,27.756,32.406,27.904,31.964,27.904z       M43.479,25.025c-0.148,0-0.295,0-0.443-0.074c-0.812-0.221-1.698-0.295-2.51-0.295c-1.033,0-1.845-0.812-1.845-1.845      s0.812-1.845,1.845-1.845c1.107,0,2.288,0.148,3.322,0.369c0.96,0.221,1.624,1.255,1.403,2.215S44.291,25.025,43.479,25.025z"/>
			</g>
			<g>
				<path fill="#B679EA" d="M84.375,50.714L84.375,50.714c-1.181-0.074-2.288-0.221-3.396-0.517c-0.96-0.295-1.55-1.255-1.329-2.288      c0.295-0.96,1.255-1.55,2.288-1.329c0.812,0.221,1.624,0.369,2.51,0.369c1.033,0.074,1.845,0.886,1.772,1.919      C86.22,49.902,85.408,50.714,84.375,50.714z M91.462,48.942c-0.664,0-1.255-0.295-1.624-0.886      c-0.517-0.886-0.221-1.993,0.664-2.51c0.738-0.443,1.403-0.96,1.993-1.55c0.738-0.664,1.919-0.664,2.584,0.074      c0.664,0.738,0.664,1.919-0.074,2.584c-0.812,0.738-1.698,1.476-2.657,1.993C92.126,48.868,91.757,48.942,91.462,48.942z       M75.295,46.432c-0.517,0-1.033-0.221-1.403-0.591C73.155,45.03,72.49,44.07,71.9,43.11c-0.517-0.886-0.148-1.993,0.738-2.51      c0.886-0.517,1.993-0.148,2.51,0.738c0.443,0.738,0.886,1.403,1.476,2.067c0.664,0.738,0.664,1.919-0.148,2.584      C76.181,46.284,75.738,46.432,75.295,46.432z M97.515,40.896c-0.148,0-0.295,0-0.443-0.074c-0.96-0.221-1.624-1.255-1.329-2.215      c0.221-0.812,0.295-1.624,0.369-2.51c0-1.033,0.886-1.845,1.845-1.845c1.033,0,1.845,0.886,1.845,1.845      c0,1.107-0.148,2.215-0.443,3.322C99.065,40.305,98.327,40.896,97.515,40.896z M71.9,36.983h-0.074      c-1.033-0.074-1.772-0.96-1.772-1.919c0.074-1.107,0.221-2.215,0.591-3.322c0.295-0.96,1.329-1.55,2.288-1.255      c0.96,0.295,1.55,1.329,1.255,2.288c-0.221,0.812-0.369,1.624-0.443,2.51C73.671,36.171,72.859,36.983,71.9,36.983z       M95.965,30.93c-0.591,0-1.255-0.295-1.55-0.886c-0.443-0.738-0.96-1.403-1.55-1.993c-0.738-0.738-0.738-1.919,0-2.584      c0.738-0.738,1.919-0.738,2.584,0c0.812,0.812,1.476,1.698,2.067,2.657c0.517,0.886,0.295,1.993-0.591,2.51      C96.629,30.856,96.334,30.93,95.965,30.93z M76.329,27.904c-0.517,0-1.033-0.221-1.403-0.664      c-0.664-0.738-0.591-1.919,0.148-2.584c0.812-0.738,1.772-1.403,2.731-1.919c0.886-0.517,1.993-0.148,2.51,0.738      c0.517,0.886,0.148,1.993-0.738,2.51c-0.738,0.369-1.476,0.886-2.067,1.403C77.215,27.756,76.772,27.904,76.329,27.904z       M87.844,25.025c-0.148,0-0.295,0-0.443-0.074c-0.812-0.221-1.698-0.295-2.51-0.295c-1.033,0-1.845-0.812-1.845-1.845      s0.812-1.845,1.845-1.845c1.107,0,2.288,0.148,3.322,0.369c0.96,0.221,1.624,1.255,1.403,2.215      C89.395,24.508,88.656,25.025,87.844,25.025z"/>
			</g>
			<g>
				<path fill="#B679EA" d="M128.74,50.714L128.74,50.714c-1.181-0.074-2.288-0.221-3.396-0.517c-0.96-0.295-1.55-1.255-1.329-2.288      c0.295-0.96,1.255-1.55,2.288-1.329c0.812,0.221,1.624,0.369,2.51,0.369c1.033,0.074,1.845,0.886,1.772,1.919      C130.586,49.902,129.774,50.714,128.74,50.714z M135.827,48.942c-0.664,0-1.255-0.295-1.624-0.886      c-0.517-0.886-0.221-1.993,0.664-2.51c0.738-0.443,1.403-0.96,1.993-1.55c0.738-0.664,1.919-0.664,2.584,0.074      s0.664,1.919-0.074,2.584c-0.812,0.738-1.698,1.476-2.657,1.993C136.491,48.868,136.122,48.942,135.827,48.942z M119.66,46.432      c-0.517,0-1.033-0.221-1.403-0.591c-0.738-0.812-1.403-1.772-1.993-2.731c-0.517-0.886-0.148-1.993,0.738-2.51      c0.886-0.517,1.993-0.148,2.51,0.738c0.443,0.738,0.886,1.403,1.476,2.067c0.664,0.738,0.664,1.919-0.148,2.584      C120.546,46.284,120.103,46.432,119.66,46.432z M141.88,40.896c-0.148,0-0.295,0-0.443-0.074      c-0.96-0.221-1.624-1.255-1.329-2.215c0.221-0.812,0.295-1.624,0.369-2.51c0-1.033,0.886-1.845,1.845-1.845      c1.033,0,1.845,0.886,1.845,1.845c0,1.107-0.148,2.215-0.443,3.322C143.43,40.305,142.692,40.896,141.88,40.896z       M116.265,36.983h-0.074c-1.033-0.074-1.772-0.96-1.772-1.919c0.074-1.107,0.221-2.215,0.591-3.322      c0.295-0.96,1.329-1.55,2.288-1.255c0.96,0.295,1.55,1.329,1.255,2.288c-0.221,0.812-0.369,1.624-0.443,2.51      C118.036,36.171,117.224,36.983,116.265,36.983z M140.33,30.93c-0.591,0-1.255-0.295-1.55-0.886      c-0.443-0.738-0.96-1.403-1.55-1.993c-0.738-0.738-0.738-1.919,0-2.584c0.738-0.738,1.919-0.738,2.584,0      c0.812,0.812,1.476,1.698,2.067,2.657c0.517,0.886,0.295,1.993-0.591,2.51C140.994,30.856,140.699,30.93,140.33,30.93z       M120.694,27.904c-0.517,0-1.033-0.221-1.403-0.664c-0.664-0.738-0.591-1.919,0.148-2.584c0.812-0.738,1.772-1.403,2.731-1.919      c0.886-0.517,1.993-0.148,2.51,0.738c0.517,0.886,0.148,1.993-0.738,2.51c-0.738,0.369-1.476,0.886-2.067,1.403      C121.58,27.756,121.137,27.904,120.694,27.904z M132.21,25.025c-0.148,0-0.295,0-0.443-0.074      c-0.812-0.221-1.698-0.295-2.51-0.295c-1.033,0-1.845-0.812-1.845-1.845s0.812-1.845,1.845-1.845      c1.107,0,2.288,0.148,3.322,0.369c0.96,0.221,1.624,1.255,1.403,2.215C133.76,24.508,133.022,25.025,132.21,25.025z"/>
			</g>
		</g>
	</g>
	<g>
		<g>
			<g>
				<path fill="#FFFFFF" d="M3.543,395.079h33.366c11.073,0,20.079,9.006,20.079,20.079v10.039c0,11.073-9.006,20.079-20.079,20.079      H3.543"/>
				<path fill="#F9D5FF" d="M36.909,447.49H3.543v-4.429h33.366c9.818,0,17.864-8.046,17.864-17.864v-10.039      c0-9.818-8.046-17.864-17.864-17.864H3.543v-4.429h33.366c12.328,0,22.293,9.966,22.293,22.293v10.039      C59.203,437.525,49.237,447.49,36.909,447.49z"/>
			</g>
		</g>
		<g>
			<g>
				<path fill="#FFFFFF" d="M143.725,445.202H76.993c-11.073,0-20.079-9.006-20.079-20.079v-10.039      c0-11.073,9.006-20.079,20.079-20.079h66.732c11.073,0,20.079,9.006,20.079,20.079v10.039      C163.804,436.196,154.798,445.202,143.725,445.202z"/>
				<path fill="#F9D5FF" d="M143.725,447.416H76.993c-12.328,0-22.293-9.966-22.293-22.293v-10.039      c0-12.328,9.966-22.293,22.293-22.293h66.732c12.328,0,22.293,9.966,22.293,22.293v10.039      C166.019,437.451,156.053,447.416,143.725,447.416z M76.993,397.219c-9.818,0-17.864,8.046-17.864,17.864v10.039      c0,9.818,8.046,17.864,17.864,17.864h66.732c9.818,0,17.864-8.046,17.864-17.864v-10.039c0-9.818-8.046-17.864-17.864-17.864      H76.993z"/>
			</g>
		</g>
		<g>
			<g>
				<path fill="#FFFFFF" d="M250.541,445.202h-66.732c-11.073,0-20.079-9.006-20.079-20.079v-10.039      c0-11.073,9.006-20.079,20.079-20.079h66.732c11.073,0,20.079,9.006,20.079,20.079v10.039      C270.62,436.196,261.614,445.202,250.541,445.202z"/>
				<path fill="#F9D5FF" d="M250.541,447.416h-66.732c-12.328,0-22.293-9.966-22.293-22.293v-10.039      c0-12.328,9.966-22.293,22.293-22.293h66.732c12.328,0,22.293,9.966,22.293,22.293v10.039      C272.835,437.451,262.869,447.416,250.541,447.416z M183.809,397.219c-9.818,0-17.864,8.046-17.864,17.864v10.039      c0,9.818,8.046,17.864,17.864,17.864h66.732c9.818,0,17.864-8.046,17.864-17.864v-10.039c0-9.818-8.046-17.864-17.864-17.864      H183.809z"/>
			</g>
		</g>
		<g>
			<g>
				<path fill="#FFFFFF" d="M357.431,445.202h-66.732c-11.073,0-20.079-9.006-20.079-20.079v-10.039      c0-11.073,9.006-20.079,20.079-20.079h66.732c11.073,0,20.079,9.006,20.079,20.079v10.039      C377.436,436.196,368.504,445.202,357.431,445.202z"/>
				<path fill="#F9D5FF" d="M357.431,447.416h-66.732c-12.328,0-22.293-9.966-22.293-22.293v-10.039      c0-12.328,9.966-22.293,22.293-22.293h66.732c12.328,0,22.293,9.966,22.293,22.293v10.039      C379.651,437.451,369.611,447.416,357.431,447.416z M290.699,397.219c-9.818,0-17.864,8.046-17.864,17.864v10.039      c0,9.818,8.046,17.864,17.864,17.864h66.732c9.818,0,17.79-8.046,17.864-17.864v-10.039c0-9.818-8.046-17.864-17.864-17.864      H290.699z"/>
			</g>
		</g>
		<g>
			<g>
				<path fill="#FFFFFF" d="M464.247,445.202h-66.732c-11.073,0-20.079-9.006-20.079-20.079v-10.039      c0-11.073,9.006-20.079,20.079-20.079h66.732c11.073,0,20.079,9.006,20.079,20.079v10.039      C484.326,436.196,475.32,445.202,464.247,445.202z"/>
				<path fill="#F9D5FF" d="M464.247,447.416h-66.732c-12.328,0-22.293-9.966-22.293-22.293v-10.039      c0-12.328,9.966-22.293,22.293-22.293h66.732c12.328,0,22.293,9.966,22.293,22.293v10.039      C486.54,437.451,476.575,447.416,464.247,447.416z M397.515,397.219c-9.818,0-17.864,8.046-17.864,17.864v10.039      c0,9.818,8.046,17.864,17.864,17.864h66.732c9.818,0,17.864-8.046,17.864-17.864v-10.039c0-9.818-8.046-17.864-17.864-17.864      H397.515z"/>
			</g>
		</g>
		<g>
			<g>
				<path fill="#FFFFFF" d="M537.697,445.202h-33.366c-11.073,0-20.079-9.006-20.079-20.079v-10.039      c0-11.073,9.006-20.079,20.079-20.079h34.178"/>
				<path fill="#F9D5FF" d="M537.697,447.416h-33.366c-12.328,0-22.293-9.966-22.293-22.293v-10.039      c0-12.328,9.966-22.293,22.293-22.293h34.178v4.429h-34.178c-9.818,0-17.864,8.046-17.864,17.864v10.039      c0,9.818,8.046,17.864,17.864,17.864h33.366V447.416z"/>
			</g>
		</g>
	</g>
	<g>
		<g>
			<path fill="#FFFFFF" d="M90.354,495.325H23.622c-11.073,0-20.079-9.006-20.079-20.079v-10.039     c0-11.073,9.006-20.079,20.079-20.079h66.732c11.073,0,20.079,9.006,20.079,20.079v10.039     C110.359,486.319,101.427,495.325,90.354,495.325z"/>
			<path fill="#F9D5FF" d="M90.354,497.539H23.622c-12.328,0-22.293-9.966-22.293-22.293v-10.039     c0-12.328,9.966-22.293,22.293-22.293h66.732c12.328,0,22.293,9.966,22.293,22.293v10.039     C112.574,487.574,102.534,497.539,90.354,497.539z M23.622,447.342c-9.818,0-17.864,8.046-17.864,17.864v10.039     c0,9.818,8.046,17.864,17.864,17.864h66.732c9.818,0,17.79-8.046,17.864-17.864v-10.039c0-9.818-8.046-17.864-17.864-17.864     H23.622z"/>
		</g>
		<g>
			<path fill="#FFFFFF" d="M197.17,495.325h-66.732c-11.073,0-20.079-9.006-20.079-20.079v-10.039     c0-11.073,9.006-20.079,20.079-20.079h66.732c11.073,0,20.079,9.006,20.079,20.079v10.039     C217.175,486.319,208.243,495.325,197.17,495.325z"/>
			<path fill="#F9D5FF" d="M197.17,497.539h-66.732c-12.328,0-22.293-9.966-22.293-22.293v-10.039     c0-12.328,9.966-22.293,22.293-22.293h66.732c12.328,0,22.293,9.966,22.293,22.293v10.039     C219.39,487.574,209.35,497.539,197.17,497.539z M130.438,447.342c-9.818,0-17.864,8.046-17.864,17.864v10.039     c0,9.818,8.046,17.864,17.864,17.864h66.732c9.818,0,17.79-8.046,17.864-17.864v-10.039c0-9.818-8.046-17.864-17.864-17.864     H130.438z"/>
		</g>
		<g>
			<path fill="#FFFFFF" d="M303.986,495.325h-66.732c-11.073,0-20.079-9.006-20.079-20.079v-10.039     c0-11.073,9.006-20.079,20.079-20.079h66.732c11.073,0,20.079,9.006,20.079,20.079v10.039     C324.065,486.319,315.059,495.325,303.986,495.325z"/>
			<path fill="#F9D5FF" d="M303.986,497.539h-66.732c-12.328,0-22.293-9.966-22.293-22.293v-10.039     c0-12.328,9.966-22.293,22.293-22.293h66.732c12.328,0,22.293,9.966,22.293,22.293v10.039     C326.28,487.574,316.314,497.539,303.986,497.539z M237.254,447.342c-9.818,0-17.864,8.046-17.864,17.864v10.039     c0,9.818,8.046,17.864,17.864,17.864h66.732c9.818,0,17.864-8.046,17.864-17.864v-10.039c0-9.818-8.046-17.864-17.864-17.864     H237.254z"/>
		</g>
		<g>
			<path fill="#FFFFFF" d="M410.802,495.325H344.07c-11.073,0-20.079-9.006-20.079-20.079v-10.039     c0-11.073,9.006-20.079,20.079-20.079h66.732c11.073,0,20.079,9.006,20.079,20.079v10.039     C430.881,486.319,421.875,495.325,410.802,495.325z"/>
			<path fill="#F9D5FF" d="M410.802,497.539H344.07c-12.328,0-22.293-9.966-22.293-22.293v-10.039     c0-12.328,9.966-22.293,22.293-22.293h66.732c12.328,0,22.293,9.966,22.293,22.293v10.039     C433.095,487.574,423.13,497.539,410.802,497.539z M344.07,447.342c-9.818,0-17.864,8.046-17.864,17.864v10.039     c0,9.818,8.046,17.864,17.864,17.864h66.732c9.818,0,17.864-8.046,17.864-17.864v-10.039c0-9.818-8.046-17.864-17.864-17.864     H344.07z"/>
		</g>
		<g>
			<path fill="#FFFFFF" d="M517.692,495.325H450.96c-11.073,0-20.079-9.006-20.079-20.079v-10.039     c0-11.073,9.006-20.079,20.079-20.079h66.732c11.073,0,20.079,9.006,20.079,20.079v10.039     C537.697,486.319,528.765,495.325,517.692,495.325z"/>
			<path fill="#F9D5FF" d="M517.692,497.539H450.96c-12.328,0-22.293-9.966-22.293-22.293v-10.039     c0-12.328,9.966-22.293,22.293-22.293h66.732c12.328,0,22.293,9.966,22.293,22.293v10.039     C539.911,487.574,529.872,497.539,517.692,497.539z M450.96,447.342c-9.818,0-17.864,8.046-17.864,17.864v10.039     c0,9.818,8.046,17.864,17.864,17.864h66.732c9.818,0,17.79-8.046,17.864-17.864v-10.039c0-9.818-8.046-17.864-17.864-17.864     H450.96z"/>
		</g>
	</g>
	<g>
		<g>
			<g>
				<path fill="#FFFFFF" d="M3.543,294.906h33.366c11.073,0,20.079,9.006,20.079,20.079v10.039c0,11.073-9.006,20.079-20.079,20.079      H3.543"/>
				<path fill="#F9D5FF" d="M36.909,347.318H3.543v-4.429h33.366c9.818,0,17.864-8.046,17.864-17.864v-10.039      c0-9.818-8.046-17.864-17.864-17.864H3.543v-4.429h33.366c12.328,0,22.293,9.966,22.293,22.293v10.039      C59.203,337.352,49.237,347.318,36.909,347.318z"/>
			</g>
		</g>
		<g>
			<g>
				<path fill="#FFFFFF" d="M143.725,345.03H76.993c-11.073,0-20.079-9.006-20.079-20.079v-10.039      c0-11.073,9.006-20.079,20.079-20.079h66.732c11.073,0,20.079,9.006,20.079,20.079v10.039      C163.804,336.024,154.798,345.03,143.725,345.03z"/>
				<path fill="#F9D5FF" d="M143.725,347.244H76.993c-12.328,0-22.293-9.966-22.293-22.293v-10.039      c0-12.328,9.966-22.293,22.293-22.293h66.732c12.328,0,22.293,9.966,22.293,22.293v10.039      C166.019,337.279,156.053,347.244,143.725,347.244z M76.993,297.047c-9.818,0-17.864,8.046-17.864,17.864v10.039      c0,9.818,8.046,17.864,17.864,17.864h66.732c9.818,0,17.864-8.046,17.864-17.864v-10.039c0-9.818-8.046-17.864-17.864-17.864      H76.993z"/>
			</g>
		</g>
		<g>
			<g>
				<path fill="#FFFFFF" d="M250.541,345.03h-66.732c-11.073,0-20.079-9.006-20.079-20.079v-10.039      c0-11.073,9.006-20.079,20.079-20.079h66.732c11.073,0,20.079,9.006,20.079,20.079v10.039      C270.62,336.024,261.614,345.03,250.541,345.03z"/>
				<path fill="#F9D5FF" d="M250.541,347.244h-66.732c-12.328,0-22.293-9.966-22.293-22.293v-10.039      c0-12.328,9.966-22.293,22.293-22.293h66.732c12.328,0,22.293,9.966,22.293,22.293v10.039      C272.835,337.279,262.869,347.244,250.541,347.244z M183.809,297.047c-9.818,0-17.864,8.046-17.864,17.864v10.039      c0,9.818,8.046,17.864,17.864,17.864h66.732c9.818,0,17.864-8.046,17.864-17.864v-10.039c0-9.818-8.046-17.864-17.864-17.864      H183.809z"/>
			</g>
		</g>
		<g>
			<g>
				<path fill="#FFFFFF" d="M357.431,345.03h-66.732c-11.073,0-20.079-9.006-20.079-20.079v-10.039      c0-11.073,9.006-20.079,20.079-20.079h66.732c11.073,0,20.079,9.006,20.079,20.079v10.039      C377.436,336.024,368.504,345.03,357.431,345.03z"/>
				<path fill="#F9D5FF" d="M357.431,347.244h-66.732c-12.328,0-22.293-9.966-22.293-22.293v-10.039      c0-12.328,9.966-22.293,22.293-22.293h66.732c12.328,0,22.293,9.966,22.293,22.293v10.039      C379.651,337.279,369.611,347.244,357.431,347.244z M290.699,297.047c-9.818,0-17.864,8.046-17.864,17.864v10.039      c0,9.818,8.046,17.864,17.864,17.864h66.732c9.818,0,17.79-8.046,17.864-17.864v-10.039c0-9.818-8.046-17.864-17.864-17.864      H290.699z"/>
			</g>
		</g>
		<g>
			<g>
				<path fill="#FFFFFF" d="M464.247,345.03h-66.732c-11.073,0-20.079-9.006-20.079-20.079v-10.039      c0-11.073,9.006-20.079,20.079-20.079h66.732c11.073,0,20.079,9.006,20.079,20.079v10.039      C484.326,336.024,475.32,345.03,464.247,345.03z"/>
				<path fill="#F9D5FF" d="M464.247,347.244h-66.732c-12.328,0-22.293-9.966-22.293-22.293v-10.039      c0-12.328,9.966-22.293,22.293-22.293h66.732c12.328,0,22.293,9.966,22.293,22.293v10.039      C486.54,337.279,476.575,347.244,464.247,347.244z M397.515,297.047c-9.818,0-17.864,8.046-17.864,17.864v10.039      c0,9.818,8.046,17.864,17.864,17.864h66.732c9.818,0,17.864-8.046,17.864-17.864v-10.039c0-9.818-8.046-17.864-17.864-17.864      H397.515z"/>
			</g>
		</g>
		<g>
			<g>
				<path fill="#FFFFFF" d="M537.697,345.03h-33.366c-11.073,0-20.079-9.006-20.079-20.079v-10.039      c0-11.073,9.006-20.079,20.079-20.079h34.178"/>
				<path fill="#F9D5FF" d="M537.697,347.244h-33.366c-12.328,0-22.293-9.966-22.293-22.293v-10.039      c0-12.328,9.966-22.293,22.293-22.293h34.178v4.429h-34.178c-9.818,0-17.864,8.046-17.864,17.864v10.039      c0,9.818,8.046,17.864,17.864,17.864h33.366V347.244z"/>
			</g>
		</g>
	</g>
	<g>
		<g>
			<path fill="#FFFFFF" d="M90.354,395.079H23.622c-11.073,0-20.079-9.006-20.079-20.079v-9.966     c0-11.073,9.006-20.079,20.079-20.079h66.732c11.073,0,20.079,9.006,20.079,20.079v10.039     C110.359,386.147,101.427,395.079,90.354,395.079z"/>
			<path fill="#F9D5FF" d="M90.354,397.293H23.622c-12.328,0-22.293-9.966-22.293-22.293v-9.966     c0-12.328,9.966-22.293,22.293-22.293h66.732c12.328,0,22.293,9.966,22.293,22.293v10.039     C112.574,387.328,102.534,397.293,90.354,397.293z M23.622,347.17c-9.818,0-17.864,8.046-17.864,17.864V375     c0,9.818,8.046,17.864,17.864,17.864h66.732c9.818,0,17.79-7.972,17.864-17.79v-10.039c0-9.818-8.046-17.864-17.864-17.864     H23.622z"/>
		</g>
		<g>
			<path fill="#FFFFFF" d="M197.17,395.079h-66.732c-11.073,0-20.079-9.006-20.079-20.079v-9.966     c0-11.073,9.006-20.079,20.079-20.079h66.732c11.073,0,20.079,9.006,20.079,20.079v10.039     C217.175,386.147,208.243,395.079,197.17,395.079z"/>
			<path fill="#F9D5FF" d="M197.17,397.293h-66.732c-12.328,0-22.293-9.966-22.293-22.293v-9.966     c0-12.328,9.966-22.293,22.293-22.293h66.732c12.328,0,22.293,9.966,22.293,22.293v10.039     C219.39,387.328,209.35,397.293,197.17,397.293z M130.438,347.17c-9.818,0-17.864,8.046-17.864,17.864V375     c0,9.818,8.046,17.864,17.864,17.864h66.732c9.818,0,17.79-7.972,17.864-17.79v-10.039c0-9.818-8.046-17.864-17.864-17.864     H130.438z"/>
		</g>
		<g>
			<path fill="#FFFFFF" d="M303.986,395.079h-66.732c-11.073,0-20.079-9.006-20.079-20.079v-9.966     c0-11.073,9.006-20.079,20.079-20.079h66.732c11.073,0,20.079,9.006,20.079,20.079v10.039     C324.065,386.147,315.059,395.079,303.986,395.079z"/>
			<path fill="#F9D5FF" d="M303.986,397.293h-66.732c-12.328,0-22.293-9.966-22.293-22.293v-9.966     c0-12.328,9.966-22.293,22.293-22.293h66.732c12.328,0,22.293,9.966,22.293,22.293v10.039     C326.28,387.328,316.314,397.293,303.986,397.293z M237.254,347.17c-9.818,0-17.864,8.046-17.864,17.864V375     c0,9.818,8.046,17.864,17.864,17.864h66.732c9.818,0,17.864-7.972,17.864-17.79v-10.039c0-9.818-8.046-17.864-17.864-17.864     H237.254z"/>
		</g>
		<g>
			<path fill="#FFFFFF" d="M410.802,395.079H344.07c-11.073,0-20.079-9.006-20.079-20.079v-9.966     c0-11.073,9.006-20.079,20.079-20.079h66.732c11.073,0,20.079,9.006,20.079,20.079v10.039     C430.881,386.147,421.875,395.079,410.802,395.079z"/>
			<path fill="#F9D5FF" d="M410.802,397.293H344.07c-12.328,0-22.293-9.966-22.293-22.293v-9.966     c0-12.328,9.966-22.293,22.293-22.293h66.732c12.328,0,22.293,9.966,22.293,22.293v10.039     C433.095,387.328,423.13,397.293,410.802,397.293z M344.07,347.17c-9.818,0-17.864,8.046-17.864,17.864V375     c0,9.818,8.046,17.864,17.864,17.864h66.732c9.818,0,17.864-7.972,17.864-17.79v-10.039c0-9.818-8.046-17.864-17.864-17.864     H344.07z"/>
		</g>
		<g>
			<path fill="#FFFFFF" d="M517.692,395.079H450.96c-11.073,0-20.079-9.006-20.079-20.079v-9.966     c0-11.073,9.006-20.079,20.079-20.079h66.732c11.073,0,20.079,9.006,20.079,20.079v10.039     C537.697,386.147,528.765,395.079,517.692,395.079z"/>
			<path fill="#F9D5FF" d="M517.692,397.293H450.96c-12.328,0-22.293-9.966-22.293-22.293v-9.966     c0-12.328,9.966-22.293,22.293-22.293h66.732c12.328,0,22.293,9.966,22.293,22.293v10.039     C539.911,387.328,529.872,397.293,517.692,397.293z M450.96,347.17c-9.818,0-17.864,8.046-17.864,17.864V375     c0,9.818,8.046,17.864,17.864,17.864h66.732c9.818,0,17.79-7.972,17.864-17.79v-10.039c0-9.818-8.046-17.864-17.864-17.864     H450.96z"/>
		</g>
	</g>
	<g>
		<g>
			<g>
				<path fill="#FFFFFF" d="M357.431,244.857h-66.732c-11.073,0-20.079-9.006-20.079-20.079v-10.039      c0-11.073,9.006-20.079,20.079-20.079h66.732c11.073,0,20.079,9.006,20.079,20.079v10.039      C377.436,235.851,368.504,244.857,357.431,244.857z"/>
				<path fill="#F9D5FF" d="M357.431,247.072h-66.732c-12.328,0-22.293-9.966-22.293-22.293v-10.039      c0-12.328,9.966-22.293,22.293-22.293h66.732c12.328,0,22.293,9.966,22.293,22.293v10.039      C379.651,237.106,369.611,247.072,357.431,247.072z M290.699,196.875c-9.818,0-17.864,8.046-17.864,17.864v10.039      c0,9.818,8.046,17.864,17.864,17.864h66.732c9.818,0,17.79-8.046,17.864-17.864v-10.039c0-9.818-8.046-17.864-17.864-17.864      L290.699,196.875L290.699,196.875z"/>
			</g>
		</g>
		<g>
			<g>
				<path fill="#FFFFFF" d="M464.247,244.857h-66.732c-11.073,0-20.079-9.006-20.079-20.079v-10.039      c0-11.073,9.006-20.079,20.079-20.079h66.732c11.073,0,20.079,9.006,20.079,20.079v10.039      C484.326,235.851,475.32,244.857,464.247,244.857z"/>
				<path fill="#F9D5FF" d="M464.247,247.072h-66.732c-12.328,0-22.293-9.966-22.293-22.293v-10.039      c0-12.328,9.966-22.293,22.293-22.293h66.732c12.328,0,22.293,9.966,22.293,22.293v10.039      C486.54,237.106,476.575,247.072,464.247,247.072z M397.515,196.875c-9.818,0-17.864,8.046-17.864,17.864v10.039      c0,9.818,8.046,17.864,17.864,17.864h66.732c9.818,0,17.864-8.046,17.864-17.864v-10.039c0-9.818-8.046-17.864-17.864-17.864      L397.515,196.875L397.515,196.875z"/>
			</g>
		</g>
		<g>
			<g>
				<path fill="#FFFFFF" d="M537.697,244.857h-33.366c-11.073,0-20.079-9.006-20.079-20.079v-10.039      c0-11.073,9.006-20.079,20.079-20.079h34.178"/>
				<path fill="#F9D5FF" d="M537.697,247.072h-33.366c-12.328,0-22.293-9.966-22.293-22.293v-10.039      c0-12.328,9.966-22.293,22.293-22.293h34.178v4.429h-34.178c-9.818,0-17.864,8.046-17.864,17.864v10.039      c0,9.818,8.046,17.864,17.864,17.864h33.366V247.072z"/>
			</g>
		</g>
	</g>
	<g>
		<g>
			<path fill="#FFFFFF" d="M303.986,294.906h-66.732c-11.073,0-20.079-9.006-20.079-20.079v-10.039     c0-11.073,9.006-20.079,20.079-20.079h66.732c11.073,0,20.079,9.006,20.079,20.079v10.039     C324.065,285.974,315.059,294.906,303.986,294.906z"/>
			<path fill="#F9D5FF" d="M303.986,297.121h-66.732c-12.328,0-22.293-9.966-22.293-22.293v-10.039     c0-12.328,9.966-22.293,22.293-22.293h66.732c12.328,0,22.293,9.966,22.293,22.293v10.039     C326.28,287.156,316.314,297.121,303.986,297.121z M237.254,246.924c-9.818,0-17.864,8.046-17.864,17.864v10.039     c0,9.818,8.046,17.864,17.864,17.864h66.732c9.818,0,17.864-8.046,17.864-17.864v-10.039c0-9.818-8.046-17.864-17.864-17.864     H237.254z"/>
		</g>
		<g>
			<path fill="#FFFFFF" d="M410.802,294.906H344.07c-11.073,0-20.079-9.006-20.079-20.079v-10.039     c0-11.073,9.006-20.079,20.079-20.079h66.732c11.073,0,20.079,9.006,20.079,20.079v10.039     C430.881,285.974,421.875,294.906,410.802,294.906z"/>
			<path fill="#F9D5FF" d="M410.802,297.121H344.07c-12.328,0-22.293-9.966-22.293-22.293v-10.039     c0-12.328,9.966-22.293,22.293-22.293h66.732c12.328,0,22.293,9.966,22.293,22.293v10.039     C433.095,287.156,423.13,297.121,410.802,297.121z M344.07,246.924c-9.818,0-17.864,8.046-17.864,17.864v10.039     c0,9.818,8.046,17.864,17.864,17.864h66.732c9.818,0,17.864-8.046,17.864-17.864v-10.039c0-9.818-8.046-17.864-17.864-17.864     H344.07z"/>
		</g>
		<g>
			<path fill="#FFFFFF" d="M517.692,294.906H450.96c-11.073,0-20.079-9.006-20.079-20.079v-10.039     c0-11.073,9.006-20.079,20.079-20.079h66.732c11.073,0,20.079,9.006,20.079,20.079v10.039     C537.697,285.974,528.765,294.906,517.692,294.906z"/>
			<path fill="#F9D5FF" d="M517.692,297.121H450.96c-12.328,0-22.293-9.966-22.293-22.293v-10.039     c0-12.328,9.966-22.293,22.293-22.293h66.732c12.328,0,22.293,9.966,22.293,22.293v10.039     C539.911,287.156,529.872,297.121,517.692,297.121z M450.96,246.924c-9.818,0-17.864,8.046-17.864,17.864v10.039     c0,9.818,8.046,17.864,17.864,17.864h66.732c9.818,0,17.79-8.046,17.864-17.864v-10.039c0-9.818-8.046-17.864-17.864-17.864     H450.96z"/>
		</g>
	</g>
</g>

            </g>
        </g>
    </g>
    
    <!-- ITEM 4 -->
    <g>
        <defs>
            <clipPath id="clip-path-id-crop-item-4">
                
          <g transform="scale(0.543560070671378 0.5440859683794467)">
          <rect x="0.0" y="0.0" width="615.0" height="1100.0"/>
          </g>
        
            </clipPath>
            
            <clipPath id="clip-path-id-viewbox-item-4">
                <rect x="0.0" y="0.0" width="307.655" height="550.615"/>
            </clipPath>
        </defs>
        <g clip-path="url(#clip-path-id-crop-item-4)" transform="translate(647.0 226.0) rotate(0.0 283.0 506.0) scale(1.8397230664218038 1.8379448434931849)">
            <g clip-path="url(#clip-path-id-viewbox-item-4)" transform="translate(-0.0 -0.0)">
                <defs><linearGradient id="linear-gradient-i4" x1="240.01" y1="-257.697" x2="240.01" y2="-638.36" gradientTransform="translate(0 792)" gradientUnits="userSpaceOnUse"><stop offset="0" stop-color="#6b9c83"/><stop offset="0.401" stop-color="#a6a6a4"/><stop offset="0.501" stop-color="#9f9fc8"/><stop offset="0.591" stop-color="#9fccec"/><stop offset="1" stop-color="#ffe7b0"/></linearGradient><linearGradient id="linear-gradient-2-i4" x1="142.865" y1="-266.663" x2="142.865" y2="-631.641" xlink:href="#linear-gradient-i4"/><linearGradient id="linear-gradient-3-i4" x1="204.873" y1="-265.192" x2="204.873" y2="-631.437" xlink:href="#linear-gradient-i4"/></defs><title>builder_thinks</title><g id="Layer_2-i4" data-name="Layer 2"><g id="Layer_1-2-i4" data-name="Layer 1"><path d="M240.822,26.132l60.827,71.6a25.347,25.347,0,0,1-2.879,35.655A24.826,24.826,0,0,1,286.812,139l-1.846.295-54.109,9.375A26.371,26.371,0,0,1,221.851,96.7l54.109-9.375L259.2,128.888,206.57,45.915" fill="#565656"/><path d="M206.57,45.989l-4.355-6.939a19,19,0,0,1,30.561-22.441l8.12,9.523" fill="#fdc068"/><path d="M171.58,41.117l-4.06,4.5a2.148,2.148,0,0,0,.222,3.1L171.58,51.3" fill="#fdc068"/><path d="M171.58,52.19a1.363,1.363,0,0,1-.516-.148l-3.913-2.657a3.06,3.06,0,0,1-1.107-2.141,2.777,2.777,0,0,1,.812-2.214l4.06-4.5a.889.889,0,0,1,1.329,1.181l-4.06,4.5a1.014,1.014,0,0,0-.3.885,1.052,1.052,0,0,0,.443.886l3.765,2.584a.86.86,0,0,1,.221,1.255A.907.907,0,0,1,171.58,52.19Z" fill="#2b2b2b"/><path id="SVGID-i4" d="M189.518,79.208l18.455.664a17.258,17.258,0,0,0,17.864-16.683l.96-27.83A27.693,27.693,0,0,0,200.148,6.718h0a27.693,27.693,0,0,0-28.641,26.648l-.886,25.468A19.646,19.646,0,0,0,189.518,79.208Z" fill="#fdc068"/><path d="M173.721,41.412a3.03,3.03,0,0,1-2.584,3.027l.222-6.053A3.1,3.1,0,0,1,173.721,41.412Z" fill="#2b2b2b"/><path d="M202.953,111.245l23.991-7.9-.664-52.632L196.9,49.68l-4.65,53.076A8.174,8.174,0,0,0,202.953,111.245Z" fill="#fdc068"/><polygon points="194.243 79.355 206.275 79.798 193.209 91.24 194.243 79.355" fill="#2b2b2b"/><path d="M163.091,181.742c.222-26.649,18.529-25.32,11.664-43.258s1.4-43.036,21.85-42.889c15.8.148,16.9-.442,23.548-.442,33.292,0,26.427,67.4,26.28,85.777Z" fill="#565656"/><path d="M246.506,180.93l46.433,352.854-50.862,5.168c-1.181-3.544-2.214-7.087-3.321-10.63s-2.067-7.087-3.1-10.7l-1.55-5.315c-.517-1.772-.96-3.543-1.4-5.389l-2.879-10.7-1.4-5.389-1.329-5.389c-.886-3.543-1.845-7.16-2.657-10.7l-2.584-10.777-2.51-10.778c-6.57-28.715-12.328-57.5-17.569-86.368l-1.919-10.851c-.369-1.772-.591-3.617-.812-5.463-.295-1.845-.517-3.617-.738-5.462-.96-7.235-1.993-14.469-2.879-21.777L194.1,312.328,192.914,301.4l-.591-5.463-.516-5.463c-.369-3.617-.738-7.308-1.034-10.925-1.255-14.542-2.288-29.158-2.953-43.774q-.553-10.963-.664-21.925l-.074-11c0-1.845.074-3.691.074-5.536s.074-3.691.148-5.537Z" fill="url(#linear-gradient-i4)"/><path d="M203.1,550.615l81.718-.295a7.861,7.861,0,0,0,7.824-7.751l.222-10.335-51.673.738-39.124,9.818C197.491,543.9,198.377,550.615,203.1,550.615Z" fill="#2b2b2b"/><path d="M241.93,209.277,203.4,313.656,92.742,532.234,43.8,535.113c.3-3.765,66.289-199.828,71.678-213.632,0,0,33.218-81.422,38.312-95.3,5.167-13.878,10.556-27.608,16.757-41.117Z" fill="url(#linear-gradient-2-i4)"/><path d="M246.654,180.487c-.148,14.1-14.985,35.064-39.493,35.064l-3.986-.221c-22.367,0-40.158-18.381-40.084-33.588Z" fill="url(#linear-gradient-3-i4)"/><polygon points="179.922 191.855 247.688 191.855 246.654 180.487 184.351 180.487 179.922 191.855" fill="#2b2b2b"/><path d="M4.011,550.615l81.718-.295a7.862,7.862,0,0,0,7.825-7.751l.221-10.335-51.673.738L2.978,542.79C-1.525,543.9-.713,550.615,4.011,550.615Z" fill="#2b2b2b"/><path d="M171.728,30.856h13.583V49.68h4.65l3.913,11.073a12.47,12.47,0,0,0,11.737,8.341h10.7c6.865,0,10.187-5.61,10.187-12.475l.442-24.139c0-14.468-12.18-26.2-26.648-26.2h-4.06a24.463,24.463,0,0,0-24.508,24.581Z" fill="#2b2b2b"/><path d="M198.893,0c-27.682,0-27.313,22.146-33.44,32.849h66.88C226.132,22.146,226.575,0,198.893,0Z" fill="#fde545"/><path d="M191,54.109h0a3.812,3.812,0,0,1-3.839-3.838V43.922A3.812,3.812,0,0,1,191,40.084h0a3.812,3.812,0,0,1,3.838,3.838v6.349A3.812,3.812,0,0,1,191,54.109Z" fill="#fdc068"/><path d="M130.758,253.346l-11.737,11.516a19.017,19.017,0,0,1-28.494-25.024l11.664-15.5Z" fill="#fdc068"/><path d="M102.117,224.262l47.1-62.525-4.355,6.865,22.588-52.042A26.365,26.365,0,0,1,215.8,137.6l-22.589,52.043-.664,1.476a16.481,16.481,0,0,1-3.765,5.389l-58.095,56.84Z" fill="#565656"/><path d="M195.941,329.454a.933.933,0,0,1-.443-.074,1.113,1.113,0,0,1-.591-1.476L226.28,251.8a1.124,1.124,0,0,1,2.067.886l-31.373,76.107A1.114,1.114,0,0,1,195.941,329.454Z" fill="#2b2b2b"/><path d="M237.131,95.226a1.113,1.113,0,0,1-1.107-.885,1.092,1.092,0,0,1,.886-1.255L265.7,88.14a1.086,1.086,0,0,1,.37,2.14l-28.79,4.946Z" fill="#2b2b2b"/><path d="M247.171,150.221a1.134,1.134,0,0,1-1.107-1.107v-17.79a1.107,1.107,0,0,1,2.214,0v17.79A1.135,1.135,0,0,1,247.171,150.221Z" fill="#2b2b2b"/><path d="M145.965,175.246a1.136,1.136,0,0,1-1.107-1.107v-8.046a1.107,1.107,0,1,1,2.214,0v8.046A1.135,1.135,0,0,1,145.965,175.246Z" fill="#2b2b2b"/><path d="M197.269,181.373a.937.937,0,0,1-.443-.074,1.112,1.112,0,0,1-.59-1.476L208.49,151.55a1.124,1.124,0,0,1,2.067.886L198.3,180.709A1.114,1.114,0,0,1,197.269,181.373Z" fill="#2b2b2b"/></g></g>
            </g>
        </g>
    </g>
    
    <!-- ITEM 5 -->
    <g>
        <defs>
            <clipPath id="clip-path-id-crop-item-5">
                
          <g transform="scale(0.6335052356020943 0.6319953488372093)">
          <rect x="-33.0" y="0.0" width="415.0" height="233.0"/>
          </g>
        
            </clipPath>
            
            <clipPath id="clip-path-id-viewbox-item-5">
                <rect x="0.0" y="0.0" width="241.999" height="135.879"/>
            </clipPath>
        </defs>
        <g clip-path="url(#clip-path-id-crop-item-5)" transform="translate(1396.0 1025.0) rotate(0.0 -191.0 107.5) scale(-1.5785189194996674 1.5822901257736663)">
            <g clip-path="url(#clip-path-id-viewbox-item-5)" transform="translate(-0.0 -0.0)">
                <defs><linearGradient id="linear-gradient-i5" x1="-16018.079" y1="132.378" x2="-16018.079" y2="239.412" gradientTransform="translate(16139.078 -108)" gradientUnits="userSpaceOnUse"><stop offset="0" stop-color="#ffd8a1"/><stop offset="0.996" stop-color="#fff"/></linearGradient></defs><title>background_3</title><g id="Layer_2-i5" data-name="Layer 2"><g id="Layer_1-2-i5" data-name="Layer 1"><path d="M242,135.879c-53.523,0-77.952-78.544-141.024-70.919-18.952,2.3-40.05-36.5-48.637-51.154C37.977-10.475,0-.7,0,27.354V135.805l242,.074Z" fill="url(#linear-gradient-i5)"/></g></g>
            </g>
        </g>
    </g>
    
</svg>